<svg viewBox="0 0 100 125" xmlns="http://www.w3.org/2000/svg"><path fill="#fff" d="m49.92 87.7a39.46 39.46 0 0 1 -26.87-10.5l1.35-1.47a37.68 37.68 0 0 0 53.18-2.11l1.47 1.38a39.55 39.55 0 0 1 -29.13 12.7z"/><path fill="#fff" d="m22.29 22.56-1.47-1.36a39.67 39.67 0 0 1 56-2.22l-1.36 1.47a37.67 37.67 0 0 0 -53.17 2.11z"/><path fill="#fff" d="m78.54 81.06-1.97-.34.97-5.61-5.7.95-.32-1.98 8.47-1.41z"/><path fill="#fff" d="m19.92 23.7 1.2-8.46 1.98.29-.8 5.66 5.63-1.11.39 1.97z"/><path fill="#fff" d="m57.86 75h-17.71a5.72 5.72 0 0 1 -5.88-5.59v-42a5.72 5.72 0 0 1 5.88-5.59h17.71a5.72 5.72 0 0 1 5.87 5.59v42a5.68 5.68 0 0 1 -5.87 5.59zm3.94-6.74v-40.19a4.36 4.36 0 0 0 -4.43-4.21h-16.74a4.36 4.36 0 0 0 -4.42 4.21v40.2a4.36 4.36 0 0 0 4.42 4.21h16.82a4.24 4.24 0 0 0 4.35-4.21z"/><path fill="#fff" d="m57.86 75.51h-17.71a6.24 6.24 0 0 1 -6.38-6.09v-42a6.24 6.24 0 0 1 6.38-6.09h17.71a6.24 6.24 0 0 1 6.37 6.09v42a5.79 5.79 0 0 1 -1.68 4.23 6.58 6.58 0 0 1 -4.69 1.86zm-17.71-53.22a5.25 5.25 0 0 0 -5.38 5.09v42a5.26 5.26 0 0 0 5.38 5.09h17.71a5.59 5.59 0 0 0 4-1.64 4.82 4.82 0 0 0 1.39-3.52v-42a5.24 5.24 0 0 0 -5.37-5.09zm17.3 50.71h-16.82a4.88 4.88 0 0 1 -4.92-4.71v-40.22a4.88 4.88 0 0 1 4.92-4.71h16.74a4.89 4.89 0 0 1 4.93 4.71v40.2a4.73 4.73 0 0 1 -4.85 4.73zm-16.82-48.64a3.87 3.87 0 0 0 -3.92 3.71v40.2a3.87 3.87 0 0 0 3.92 3.73h16.82a3.74 3.74 0 0 0 3.85-3.71v-40.22a3.88 3.88 0 0 0 -3.93-3.71z"/><ellipse fill="#fff" cx="48.92" cy="68.19" rx="2.33" ry="2.22"/></svg>